<svg width="334" height="221" viewBox="0 0 334 221" fill="none" xmlns="http://www.w3.org/2000/svg">
<path fill-rule="evenodd" clip-rule="evenodd" d="M125.53 19.6219L125.585 19.7178L132.357 31.4468C136.157 38.0279 143.179 42.0821 150.778 42.0821V42.0821C163.126 42.0821 172.509 30.8646 178.527 20.0819C181.861 14.109 186.801 8.93114 193.155 5.26249C211.919 -5.57079 235.912 0.858154 246.745 19.6219L328.669 161.518L328.738 161.637C339.571 180.401 333.142 204.394 314.378 215.227C295.615 226.06 271.622 219.631 260.788 200.868C260.788 200.868 260.788 200.868 260.788 200.868V200.868C260.788 200.868 260.788 200.867 260.788 200.867L188.785 76.1554C186.417 72.0537 182.041 69.5269 177.304 69.5269V69.5269C167.099 69.5269 160.721 80.5744 165.823 89.4125L207.454 161.52L207.522 161.637C218.356 180.401 211.927 204.394 193.163 215.227C174.399 226.06 150.406 219.631 139.573 200.868C139.573 200.868 139.573 200.868 139.573 200.868V200.868V200.868C139.572 200.868 139.572 200.867 139.572 200.867L136.144 194.93C132.523 188.658 125.832 184.795 118.591 184.795H109.614C90.6587 184.795 75.4754 202.325 60.0741 213.376C53.8475 217.843 46.2136 220.474 37.9654 220.474C16.9977 220.474 0 203.476 0 182.508C0 161.54 16.9977 144.543 37.9654 144.543C49.8426 144.543 60.446 149.997 67.4076 158.537C72.7978 165.149 79.979 171.073 88.51 171.073V171.073C103.559 171.073 112.965 154.782 105.44 141.749L57.5802 58.8529C57.5802 58.8528 57.5802 58.8527 57.5802 58.8527V58.8527V58.8527C57.5802 58.8526 57.5802 58.8525 57.5802 58.8525C46.7471 40.0887 53.1761 16.0957 71.9398 5.26248C90.7036 -5.5708 114.697 0.858148 125.53 19.6219Z" fill="black"/>
</svg>
